<!-- <xml version="1.0" standalone="no"?>
<!DOCTYPE svg PUBLIC "-//W3C//DTD SVG 20010904//EN"
 "http://www.w3.org/TR/2001/REC-SVG-20010904/DTD/svg10.dtd"> -->
<svg version="1.0" xmlns="http://www.w3.org/2000/svg"
 width="438.000000pt" height="278.000000pt" viewBox="0 0 438.000000 278.000000"
 preserveAspectRatio="xMidYMid meet">

<g transform="translate(0.000000,278.000000) scale(0.100000,-0.100000)"
fill="#000000" stroke="none">
<path d="M1813 2705 c-221 -41 -401 -198 -477 -415 -50 -145 -41 -310 24 -457
102 -226 316 -361 577 -364 156 -1 302 60 416 174 108 109 154 194 183 347 51
257 -94 539 -338 660 -48 24 -103 44 -121 45 -19 1 -38 5 -43 7 -23 14 -155
16 -221 3z m244 -67 c-3 -8 -6 -5 -6 6 -1 11 2 17 5 13 3 -3 4 -12 1 -19z m10
-60 c-3 -8 -6 -5 -6 6 -1 11 2 17 5 13 3 -3 4 -12 1 -19z m-67 -32 c36 -7 78
-19 94 -28 l28 -15 -153 -87 c-109 -61 -160 -85 -174 -80 -55 17 -83 16 -104
-5 -59 -59 14 -161 88 -121 20 10 44 59 39 79 -3 11 311 201 332 201 5 0 30
-18 57 -39 140 -110 203 -302 158 -476 -39 -147 -152 -269 -295 -320 -24 -9
-48 -21 -52 -28 -4 -7 -8 -7 -8 -2 0 7 -28 9 -74 7 -78 -4 -157 13 -228 49
-42 21 -108 76 -108 90 0 4 33 27 73 50 39 23 92 53 116 68 25 14 42 21 39 15
-4 -5 13 -44 36 -87 l42 -77 124 70 c116 66 124 69 142 54 10 -10 33 -17 50
-16 78 2 94 115 21 143 -49 18 -103 -23 -103 -79 0 -11 -37 -38 -107 -77 -59
-33 -110 -61 -113 -63 -5 -2 -80 129 -80 141 0 3 33 24 74 46 70 39 75 40 102
26 52 -27 104 6 104 65 0 45 -25 71 -71 72 -40 1 -83 -43 -76 -78 3 -20 -15
-33 -162 -117 -182 -104 -225 -127 -239 -127 -5 0 -17 11 -26 24 l-16 25 90
51 89 51 -21 36 c-26 43 -36 33 144 135 70 40 123 77 119 81 -5 5 -78 -31
-163 -80 l-155 -88 19 -30 c10 -17 18 -35 18 -41 0 -11 -149 -99 -156 -91 -2
2 -13 29 -24 60 -61 174 -18 360 113 489 88 85 180 124 322 136 6 1 39 -4 75
-12z m-229 -226 c26 -14 25 -62 -2 -86 -19 -17 -23 -17 -47 -3 -33 18 -40 54
-16 80 19 21 36 24 65 9z m317 -232 c7 -7 12 -24 12 -38 0 -14 -5 -31 -12 -38
-7 -7 -24 -12 -38 -12 -14 0 -31 5 -38 12 -7 7 -12 24 -12 38 0 14 5 31 12 38
7 7 24 12 38 12 14 0 31 -5 38 -12z m176 -150 c20 -57 -57 -93 -90 -43 -15 23
-15 27 0 51 24 36 76 31 90 -8z"/>
<path d="M1965 2305 c-14 -13 -25 -36 -25 -50 0 -33 41 -75 73 -75 39 0 77 36
77 74 0 68 -78 99 -125 51z m87 -12 c43 -39 -4 -109 -57 -85 -47 22 -28 102
24 102 8 0 23 -7 33 -17z"/>
<path d="M2283 1475 c-37 -16 -63 -60 -63 -107 0 -46 324 -595 366 -620 78
-48 174 10 174 104 0 46 -324 595 -366 620 -35 21 -68 22 -111 3z"/>
<path d="M1082 608 c-27 -27 -6 -68 35 -68 29 0 48 33 33 60 -12 22 -49 27
-68 8z"/>
<path d="M3340 420 l0 -200 35 0 c35 0 35 1 35 43 0 39 13 67 31 67 3 0 23
-25 43 -55 34 -51 39 -55 76 -55 22 0 40 2 40 5 0 3 -22 39 -50 80 -27 41 -50
80 -50 87 0 7 23 36 52 65 l52 53 -44 0 c-40 0 -49 -5 -97 -52 l-53 -52 0 107
0 107 -35 0 -35 0 0 -200z"/>
<path d="M280 560 c0 -29 1 -30 50 -30 l50 0 0 -155 0 -155 40 0 40 0 0 155 0
155 50 0 c49 0 50 1 50 30 l0 30 -140 0 -140 0 0 -30z"/>
<path d="M1250 550 c0 -29 -4 -40 -15 -40 -9 0 -15 -9 -15 -25 0 -15 6 -25 14
-25 11 0 15 -22 18 -95 4 -115 20 -140 92 -140 56 0 79 18 64 50 -9 21 -13 22
-35 12 -39 -18 -54 12 -51 98 l3 70 33 3 c26 3 32 7 32 28 0 21 -5 24 -35 24
-34 0 -35 1 -35 40 0 39 -1 40 -35 40 -34 0 -35 -1 -35 -40z"/>
<path d="M1480 550 c0 -29 -4 -40 -15 -40 -9 0 -15 -9 -15 -25 0 -16 6 -25 15
-25 12 0 15 -13 15 -57 0 -83 10 -129 31 -152 32 -34 86 -39 128 -12 12 8 13
14 3 36 -10 22 -15 24 -33 15 -37 -20 -49 3 -49 91 l0 79 35 0 c31 0 35 3 35
25 0 22 -4 25 -35 25 -34 0 -35 1 -35 40 l0 40 -40 0 -40 0 0 -40z"/>
<path d="M2140 560 c0 -30 1 -30 55 -30 l55 0 0 -155 0 -155 35 0 35 0 0 155
0 155 55 0 c54 0 55 0 55 30 l0 30 -145 0 -145 0 0 -30z"/>
<path d="M609 368 l48 -143 39 -3 40 -3 18 58 c37 118 35 117 65 28 l28 -80
39 -3 39 -3 44 133 c24 73 46 139 49 146 3 10 -5 13 -33 10 -38 -3 -39 -3 -64
-80 -14 -42 -29 -80 -33 -83 -3 -4 -19 32 -34 80 l-28 86 -35 -3 c-33 -3 -35
-5 -60 -80 -14 -42 -29 -80 -33 -83 -3 -4 -19 32 -34 79 l-28 86 -37 0 -38 0
48 -142z"/>
<path d="M1080 365 l0 -145 35 0 35 0 0 145 0 145 -35 0 -35 0 0 -145z"/>
<path d="M1712 408 c81 -206 84 -232 27 -226 -24 2 -35 -3 -46 -19 -13 -20
-12 -23 11 -39 33 -21 94 -13 117 15 15 18 149 347 149 365 0 4 -17 6 -37 4
-37 -3 -38 -4 -72 -91 -18 -49 -37 -85 -41 -80 -4 4 -22 45 -40 91 l-32 82
-38 0 -38 0 40 -102z"/>
<path d="M2490 365 l0 -145 35 0 35 0 0 73 c0 90 22 140 63 145 24 3 27 8 27
38 0 40 -15 44 -53 14 -14 -11 -28 -20 -31 -20 -3 0 -6 9 -6 20 0 16 -7 20
-35 20 l-35 0 0 -145z"/>
<path d="M2748 493 c-42 -17 -44 -20 -23 -47 13 -17 18 -18 38 -7 13 7 41 11
63 9 32 -2 40 -7 42 -25 3 -20 -1 -23 -35 -23 -49 0 -108 -17 -123 -34 -15
-20 -16 -71 0 -100 25 -48 99 -60 144 -25 l26 20 0 -20 c0 -17 6 -21 35 -21
l35 0 0 99 c0 115 -12 156 -51 176 -36 19 -104 18 -151 -2z m122 -168 c0 -17
-8 -29 -24 -36 -32 -15 -76 -4 -76 19 0 28 21 42 62 42 34 0 38 -3 38 -25z"/>
<path d="M3091 492 c-47 -23 -72 -61 -78 -113 -8 -82 46 -147 130 -156 38 -5
54 -1 92 22 l47 27 -22 22 -21 23 -39 -19 c-34 -17 -42 -18 -67 -6 -36 17 -58
57 -50 90 15 57 71 82 121 54 28 -16 30 -16 49 2 24 24 16 39 -29 58 -45 19
-92 18 -133 -4z"/>
<path d="M3713 490 c-48 -29 -66 -63 -66 -126 0 -64 20 -99 74 -127 41 -22
115 -18 155 7 l26 18 -21 21 c-18 18 -24 20 -41 9 -41 -25 -120 -3 -120 34 0
11 20 14 106 14 l105 0 -7 48 c-4 26 -13 57 -21 69 -34 51 -132 69 -190 33z
m119 -57 c35 -32 23 -43 -47 -43 -71 0 -85 15 -43 44 29 21 67 20 90 -1z"/>
<path d="M3990 365 l0 -145 34 0 33 0 5 83 c6 98 18 126 59 134 25 5 29 10 29
39 0 40 -15 44 -54 13 l-27 -21 -6 21 c-4 16 -13 21 -39 21 l-34 0 0 -145z"/>
</g>
</svg>